<?xml version="1.0" standalone="no"?>
<!DOCTYPE svg PUBLIC "-//W3C//DTD SVG 20010904//EN"
 "http://www.w3.org/TR/2001/REC-SVG-20010904/DTD/svg10.dtd">
<svg version="1.0" xmlns="http://www.w3.org/2000/svg"
 width="512.000000pt" height="512.000000pt" viewBox="0 0 512.000000 512.000000"
 preserveAspectRatio="xMidYMid meet">

<g transform="translate(0.000000,512.000000) scale(0.100000,-0.100000)"
fill="#5679c0" stroke="none">
<path d="M2330 5104 c-825 -117 -1450 -774 -1551 -1629 -17 -146 -6 -380 25
-531 116 -558 532 -1283 1158 -2021 l78 -92 -58 -6 c-623 -67 -954 -204 -954
-394 0 -207 326 -340 1002 -408 216 -21 802 -24 1010 -5 603 57 950 166 1032
325 67 131 -17 250 -239 338 -145 57 -422 115 -695 144 l-56 6 109 131 c546
655 933 1301 1079 1803 52 179 70 287 76 460 29 780 -443 1501 -1163 1779 -96
38 -214 70 -338 92 -119 22 -388 26 -515 8z m395 -164 c273 -32 536 -131 755
-287 121 -87 296 -262 383 -383 124 -174 239 -437 281 -640 86 -420 23 -773
-229 -1285 -199 -405 -486 -829 -873 -1293 -196 -236 -465 -532 -482 -532 -11
0 -228 235 -374 405 -607 705 -1013 1360 -1172 1890 -103 340 -97 665 16 1006
242 730 959 1203 1695 1119z m-401 -4425 c160 -168 184 -183 270 -170 37 6 56
21 196 166 l156 160 119 -11 c386 -35 730 -118 827 -200 41 -35 34 -52 -38
-92 -202 -113 -757 -198 -1294 -198 -525 0 -1061 80 -1281 190 -92 47 -99 71
-32 113 63 39 137 66 276 102 160 41 452 84 628 94 20 1 53 -28 173 -154z"/>
<path d="M2392 4770 c-254 -32 -506 -134 -708 -286 -98 -74 -258 -243 -325
-344 -108 -162 -180 -332 -221 -523 -32 -148 -32 -428 0 -574 131 -602 586
-1042 1187 -1145 164 -28 399 -21 556 15 432 102 781 378 979 775 52 106 98
239 126 372 28 128 26 418 -4 557 -63 291 -185 516 -397 729 -216 218 -454
347 -745 405 -111 22 -343 32 -448 19z m404 -185 c623 -119 1068 -677 1041
-1305 -3 -69 -13 -159 -22 -200 -115 -547 -545 -948 -1093 -1021 -107 -14
-320 -7 -420 15 -506 110 -890 497 -997 1006 -9 41 -19 131 -22 200 -24 566
340 1087 882 1264 77 25 196 51 280 60 70 7 269 -3 351 -19z"/>
<path d="M1770 4093 c-60 -22 -81 -100 -37 -141 21 -20 34 -22 125 -22 l102 0
0 -353 c0 -422 2 -433 86 -514 29 -29 60 -53 69 -53 12 0 15 -13 15 -64 0 -61
-1 -64 -30 -76 -68 -28 -140 -144 -140 -225 0 -50 33 -128 71 -170 115 -125
305 -109 399 33 l34 52 142 0 c136 0 143 -1 149 -21 12 -37 78 -101 130 -125
93 -44 206 -23 280 51 117 116 96 303 -43 395 -51 33 -52 35 -52 82 l0 48 49
0 c55 0 103 27 137 77 31 47 157 565 152 624 -6 59 -39 106 -92 130 -38 17
-77 19 -613 19 l-573 0 0 65 c0 38 -6 78 -15 94 -20 39 -69 78 -113 91 -38 10
-205 13 -232 3z m1468 -440 c-3 -10 -31 -125 -64 -255 l-59 -238 -466 0 -466
0 -23 25 c-18 19 -25 40 -28 85 l-4 60 400 0 401 0 27 24 c36 30 39 86 6 119
-22 22 -24 22 -427 25 l-405 3 0 84 0 85 556 0 c525 0 556 -1 552 -17z m-338
-717 c0 -50 -2 -54 -30 -66 -34 -14 -105 -87 -115 -119 -6 -20 -12 -21 -149
-21 l-143 0 -31 50 c-20 32 -50 62 -82 82 -47 29 -50 33 -50 73 0 23 3 45 7
48 3 4 138 7 300 7 l293 0 0 -54z m-625 -231 c52 -51 16 -145 -54 -145 -46 0
-85 39 -85 85 0 74 88 112 139 60z m770 0 c25 -24 32 -65 19 -100 -8 -19 -55
-45 -84 -45 -31 0 -80 53 -80 85 0 16 12 38 29 56 38 37 82 39 116 4z"/>
</g>
</svg>
